<?xml version="1.0" encoding="utf-8"?>
<!-- Generator: Adobe Illustrator 16.0.0, SVG Export Plug-In . SVG Version: 6.00 Build 0)  -->
<!DOCTYPE svg PUBLIC "-//W3C//DTD SVG 1.1//EN" "http://www.w3.org/Graphics/SVG/1.1/DTD/svg11.dtd">
<svg version="1.1" id="layer_1" xmlns="http://www.w3.org/2000/svg" xmlns:xlink="http://www.w3.org/1999/xlink" x="0px" y="0px"
	 width="160px" height="160px" viewBox="0 0 160 160" enable-background="new 0 0 160 160" xml:space="preserve">
<g>
	<path fill="#699F63" d="M80.272,156.528c-2.051,0-4.092-0.535-5.886-1.575L55.65,143.869c-2.797-1.567-1.431-2.123-0.508-2.443
		c3.731-1.294,4.488-1.595,8.47-3.851c0.415-0.234,0.966-0.145,1.394,0.105l14.395,8.546c0.522,0.289,1.259,0.289,1.737,0
		l56.117-32.386c0.524-0.298,0.856-0.899,0.856-1.521V47.559c0-0.633-0.336-1.224-0.872-1.544L81.147,13.651
		c-0.518-0.301-1.208-0.301-1.729,0L23.34,46.026c-0.545,0.309-0.891,0.922-0.891,1.532v64.761c0,0.622,0.344,1.208,0.885,1.502
		l15.373,8.878c8.341,4.176,13.447-0.738,13.447-5.677V53.087c0-0.907,0.727-1.619,1.63-1.619H60.9c0.89,0,1.626,0.711,1.626,1.619
		v63.936c0,11.135-6.062,17.519-16.615,17.519c-3.243,0-5.798,0-12.927-3.515l-14.715-8.468c-3.634-2.104-5.886-6.032-5.886-10.239
		V47.559c0-4.207,2.25-8.132,5.886-10.227L74.386,4.906c3.552-2.01,8.271-2.01,11.795,0l56.109,32.425
		c3.636,2.103,5.896,6.021,5.896,10.227v64.761c0,4.207-2.26,8.12-5.896,10.239l-56.109,32.398
		C84.387,155.993,82.352,156.528,80.272,156.528z"/>
	<path fill="#699F63" d="M97.605,111.913c-24.556,0-29.701-11.271-29.701-20.725c0-0.898,0.724-1.618,1.623-1.618h7.256
		c0.811,0,1.485,0.586,1.612,1.376c1.097,7.385,4.361,11.115,19.21,11.115c11.822,0,16.857-2.679,16.857-8.949
		c0-3.612-1.427-6.298-19.798-8.101c-15.354-1.517-24.853-4.91-24.853-17.194c0-11.322,9.543-18.074,25.549-18.074
		c17.976,0,26.869,6.24,27.999,19.625c0.04,0.461-0.125,0.903-0.43,1.248c-0.309,0.324-0.735,0.52-1.188,0.52h-7.283
		c-0.755,0-1.423-0.535-1.575-1.271c-1.748-7.772-5.998-10.25-17.522-10.25c-12.909,0-14.411,4.496-14.411,7.862
		c0,4.085,1.771,5.274,19.196,7.577c17.248,2.279,25.438,5.508,25.438,17.628C125.581,104.911,115.386,111.913,97.605,111.913z"/>
</g>
</svg>
