<?xml version="1.0" encoding="utf-8"?>
<!-- Generator: Adobe Illustrator 16.0.0, SVG Export Plug-In . SVG Version: 6.00 Build 0)  -->
<!DOCTYPE svg PUBLIC "-//W3C//DTD SVG 1.1//EN" "http://www.w3.org/Graphics/SVG/1.1/DTD/svg11.dtd">
<svg version="1.1" id="layer_1" xmlns="http://www.w3.org/2000/svg" xmlns:xlink="http://www.w3.org/1999/xlink" x="0px" y="0px"
	 width="160px" height="160px" viewBox="0 0 160 160" enable-background="new 0 0 160 160" xml:space="preserve">
<path fill="#444444" d="M147.731,78.596L141.919,75c-0.045-0.565-0.104-1.131-0.169-1.693l4.993-4.658
	c0.806-0.757,0.845-2.025,0.091-2.834c-0.208-0.221-0.468-0.394-0.747-0.501l-6.385-2.392c-0.162-0.549-0.331-1.102-0.501-1.648
	l3.979-5.532c0.409-0.559,0.487-1.294,0.228-1.938c-0.261-0.647-0.846-1.099-1.528-1.212l-6.722-1.099
	c-0.261-0.51-0.533-1.014-0.819-1.512l2.834-6.212c0.286-0.63,0.234-1.362-0.162-1.944c-0.396-0.579-1.034-0.91-1.729-0.884
	l-6.833,0.241c-0.351-0.442-0.715-0.881-1.079-1.313l1.573-6.657c0.261-1.073-0.402-2.148-1.476-2.409
	c-0.306-0.071-0.617-0.071-0.93,0l-6.645,1.57c-0.436-0.364-0.871-0.725-1.313-1.079l0.233-6.83
	c0.053-1.099-0.806-2.025-1.898-2.071c-0.318-0.013-0.637,0.049-0.923,0.182l-6.209,2.828c-0.5-0.276-1.007-0.546-1.515-0.813
	l-1.092-6.729c-0.183-1.089-1.209-1.83-2.295-1.651c-0.306,0.049-0.599,0.169-0.852,0.351l-5.532,3.982
	c-0.547-0.172-1.093-0.341-1.646-0.5l-2.393-6.384c-0.377-1.034-1.527-1.56-2.562-1.177c-0.292,0.107-0.559,0.283-0.767,0.51
	l-4.661,5.003c-0.566-0.065-1.125-0.121-1.69-0.169l-3.596-5.812c-0.578-0.939-1.811-1.232-2.75-0.654
	c-0.267,0.166-0.487,0.39-0.653,0.654l-3.595,5.812c-0.565,0.048-1.131,0.107-1.697,0.169l-4.661-5.003
	c-0.757-0.806-2.025-0.845-2.832-0.084c-0.224,0.208-0.396,0.465-0.503,0.751l-2.39,6.384c-0.552,0.159-1.099,0.328-1.645,0.5
	l-5.533-3.982c-0.894-0.647-2.142-0.445-2.789,0.449c-0.182,0.25-0.302,0.542-0.351,0.852l-1.099,6.729
	c-0.507,0.26-1.014,0.533-1.512,0.813l-6.212-2.828c-1.007-0.458-2.194-0.01-2.652,0.998c-0.126,0.279-0.185,0.585-0.175,0.891
	l0.237,6.83c-0.442,0.354-0.878,0.715-1.31,1.079l-6.657-1.57c-1.073-0.257-2.149,0.41-2.406,1.482
	c-0.071,0.306-0.071,0.621,0.003,0.926l1.57,6.657c-0.368,0.433-0.725,0.865-1.08,1.313l-6.83-0.241
	c-1.105-0.036-2.031,0.833-2.067,1.938c-0.01,0.306,0.049,0.611,0.176,0.891l2.831,6.212c-0.273,0.5-0.546,0.998-0.813,1.512
	l-6.732,1.099c-1.089,0.175-1.83,1.199-1.655,2.289c0.049,0.312,0.172,0.604,0.358,0.861l3.982,5.532
	c-0.176,0.543-0.341,1.096-0.5,1.648l-6.384,2.392c-1.034,0.384-1.557,1.535-1.174,2.568c0.111,0.292,0.286,0.556,0.514,0.767
	l4.993,4.658c-0.059,0.565-0.12,1.128-0.166,1.693l-5.812,3.595c-0.939,0.585-1.226,1.82-0.64,2.76
	c0.163,0.26,0.38,0.478,0.64,0.641l5.812,3.595c0.046,0.565,0.107,1.132,0.166,1.69L12.2,91.942
	c-0.806,0.761-0.848,2.022-0.091,2.828c0.208,0.228,0.465,0.396,0.751,0.507l6.384,2.393c0.159,0.547,0.325,1.105,0.5,1.651
	l-3.982,5.526c-0.407,0.572-0.494,1.294-0.228,1.938c0.267,0.637,0.845,1.092,1.524,1.209l6.732,1.092
	c0.26,0.521,0.533,1.015,0.813,1.516l-2.831,6.208c-0.455,1.001-0.01,2.191,1.001,2.652c0.28,0.124,0.582,0.183,0.891,0.169
	l6.83-0.233c0.354,0.442,0.712,0.878,1.08,1.313l-1.57,6.657c-0.26,1.065,0.396,2.146,1.466,2.398c0.306,0.071,0.627,0.071,0.937,0
	l6.657-1.566c0.432,0.37,0.871,0.728,1.31,1.079l-0.237,6.839c-0.045,1.099,0.809,2.028,1.908,2.067
	c0.319,0.014,0.634-0.052,0.92-0.182l6.212-2.835c0.498,0.286,1.005,0.547,1.512,0.819l1.099,6.729
	c0.111,0.683,0.566,1.269,1.209,1.528c0.647,0.26,1.372,0.176,1.937-0.222l5.533-3.991c0.546,0.176,1.099,0.338,1.651,0.501
	l2.389,6.384c0.387,1.034,1.538,1.554,2.571,1.177c0.292-0.117,0.553-0.286,0.764-0.521l4.662-4.992
	c0.559,0.064,1.131,0.123,1.697,0.169l3.595,5.812c0.582,0.937,1.814,1.223,2.75,0.65c0.263-0.169,0.484-0.39,0.647-0.65
	l3.595-5.812c0.565-0.046,1.132-0.104,1.69-0.169l4.655,4.992c0.761,0.807,2.028,0.852,2.834,0.092
	c0.222-0.208,0.396-0.462,0.508-0.748l2.392-6.384c0.547-0.163,1.105-0.325,1.651-0.501l5.526,3.991
	c0.91,0.638,2.172,0.417,2.809-0.5c0.169-0.24,0.286-0.514,0.338-0.807l1.093-6.729l1.515-0.819l6.208,2.835
	c1.008,0.455,2.191,0.013,2.646-0.988c0.123-0.286,0.188-0.585,0.176-0.897l-0.234-6.839c0.436-0.352,0.878-0.709,1.313-1.079
	l6.657,1.566c1.072,0.254,2.151-0.423,2.398-1.502c0.072-0.299,0.072-0.604,0-0.896l-1.566-6.657
	c0.364-0.436,0.729-0.871,1.079-1.313l6.833,0.233c1.105,0.039,2.028-0.832,2.061-1.937c0.013-0.306-0.052-0.611-0.182-0.885
	l-2.821-6.208l0.806-1.516l6.735-1.092c0.683-0.104,1.255-0.572,1.521-1.209c0.267-0.65,0.182-1.379-0.222-1.938l-3.985-5.526
	c0.176-0.546,0.345-1.104,0.501-1.651l6.384-2.393c1.034-0.402,1.548-1.56,1.151-2.6c-0.11-0.28-0.279-0.533-0.494-0.735
	l-4.993-4.661l0.169-1.69l5.813-3.595c0.942-0.579,1.229-1.808,0.656-2.747c-0.169-0.267-0.39-0.491-0.656-0.653H147.731z
	 M108.828,126.796c-2.211-0.475-3.628-2.666-3.153-4.889c0.475-2.224,2.659-3.642,4.883-3.16c2.223,0.481,3.641,2.666,3.159,4.889
	C113.242,125.859,111.052,127.276,108.828,126.796L108.828,126.796z M106.852,113.442c-2.016-0.43-4.005,0.852-4.447,2.873
	c0,0,0,0.007,0,0.014l-2.061,9.635c-6.56,2.971-13.685,4.499-20.885,4.485c-7.366,0.014-14.645-1.586-21.324-4.693l-2.061-9.629
	c-0.432-2.021-2.425-3.309-4.45-2.88l-8.5,1.82c-1.577-1.625-3.046-3.354-4.392-5.175h41.361c0.465,0,0.777-0.091,0.777-0.521
	V94.745c0-0.43-0.312-0.514-0.777-0.514H67.997v-9.277h13.08c1.19,0,6.388,0.345,8.039,6.982c0.521,2.034,1.664,8.679,2.444,10.805
	c0.78,2.38,3.939,7.139,7.32,7.139h20.609c0.247,0,0.5-0.026,0.741-0.065c-1.431,1.938-2.991,3.777-4.682,5.493L106.852,113.442
	L106.852,113.442z M49.654,126.601c-2.256,0.332-4.353-1.229-4.684-3.484c-0.302-2.055,0.965-4.005,2.961-4.57
	c2.223-0.475,4.414,0.942,4.889,3.166C53.298,123.936,51.88,126.119,49.654,126.601L49.654,126.601z M33.963,62.977
	c0.988,2.051,0.126,4.512-1.924,5.5c-2.051,0.988-4.512,0.127-5.5-1.924c-0.039-0.078-0.071-0.156-0.104-0.234
	c-0.858-2.11,0.153-4.512,2.263-5.37C30.712,60.125,33.021,61.017,33.963,62.977z M29.143,74.406l8.854-3.933
	c1.892-0.842,2.747-3.059,1.905-4.954l-1.823-4.128h7.167v32.328H30.774c-1.788-6.268-2.347-12.833-1.645-19.319L29.143,74.406z
	 M68.003,71.272v-9.527h17.083c0.884,0,6.228,1.017,6.228,5.019c0,3.322-4.096,4.508-7.477,4.508H68.003z M130.067,79.844
	c0,1.268-0.046,2.522-0.137,3.758h-5.194c-0.52,0-0.734,0.338-0.734,0.852v2.386c0,5.604-3.166,6.833-5.936,7.139
	c-2.646,0.299-5.572-1.105-5.936-2.718c-1.554-8.764-4.148-10.636-8.257-13.87c5.097-3.228,10.389-7.997,10.389-14.381
	c0-6.891-4.726-11.23-7.944-13.354c-4.519-2.978-9.518-3.576-10.856-3.576h-53.71c7.421-8.298,17.375-13.916,28.313-15.977
	l6.332,6.644c1.431,1.496,3.803,1.551,5.299,0.121l0,0l7.083-6.778c14.614,2.74,27.279,11.764,34.645,24.679L118.58,65.72
	c-0.846,1.896,0.013,4.112,1.911,4.951l9.329,4.147C129.982,76.476,130.067,78.153,130.067,79.844L130.067,79.844z M76.403,24.457
	c1.645-1.566,4.245-1.501,5.812,0.14c1.57,1.645,1.506,4.245-0.14,5.812l0,0c-1.645,1.567-4.245,1.505-5.812-0.14
	C74.697,28.624,74.762,26.023,76.403,24.457z M124.521,63.175c0.871-2.097,3.277-3.091,5.377-2.22s3.095,3.28,2.224,5.376
	c-0.026,0.059-0.046,0.117-0.078,0.172c-0.969,2.058-3.413,2.942-5.474,1.973C124.58,67.543,123.677,65.207,124.521,63.175z"/>
</svg>
